<svg xmlns="http://www.w3.org/2000/svg" width="132px" height="26px" viewBox="0 0 132 26">
  <path fill-rule="evenodd" d="M76.2 25.42h3.45V.67H76.2m42 14.13l3-8.7 3.02 8.7h-6.03zM122.53.67h-2.67l-9.1 24.75h3.64l2.62-7.28h8.37l2.6 7.28h3.62L122.52.67zM95.13 4h5.36l3.45 3.47 2.4-2.37L101.9.66h-8.18l-6.57 6.5V18.9l6.57 6.5h8.17l4.44-4.43-2.4-2.37-3.48 3.46H95.1l-4.58-4.55V8.6m-24.97 8.3v1.96L62.3 22.1h-7.24v-8.2h7.48l3 2.98zM55.05 4h7l2.6 2.58v1.4L62 10.62h-6.94V4zM68 9.36V5.22L63.4.67H51.67v24.75h12l5.2-5.18V15.5L65.34 12 68 9.36zm-27.12-.3l-2.95 2.9H29.9v-7.9H38l2.88 2.84v2.17zM26.46.66v24.77h3.44V15.35h6.07l4.43 10.07h3.8L39.58 15.1l4.7-4.66V5.5L39.38.67h-12.9zm-10.94 17.9l-3.5 3.47H7.08l-3.5-3.45V.68H.18V20l5.44 5.4h7.86l5.46-5.4V.66h-3.42"/>
</svg>
